<svg width="30" height="30" viewBox="0 0 30 30" fill="none" xmlns="http://www.w3.org/2000/svg">
<path fill-rule="evenodd" clip-rule="evenodd" d="M24.2368 5.72357H19.5789C19.1447 5.72357 18.7894 5.36831 18.7894 4.93409V1.10515C18.7894 0.670937 19.1447 0.315674 19.5789 0.315674H28.8552C29.2894 0.315674 29.6447 0.670937 29.6447 1.10515V10.3815C29.6447 10.8157 29.2894 11.1709 28.8552 11.1709H25.0263C24.5921 11.1709 24.2368 10.8157 24.2368 10.3815V5.72357ZM28.0657 1.89462H20.3684V4.14462H25.0263C25.4605 4.14462 25.8157 4.49988 25.8157 4.93409V9.59199H28.0657V1.89462Z" fill="#0A0C0A"/>
<path fill-rule="evenodd" clip-rule="evenodd" d="M10.421 29.6842H1.1447C0.710488 29.6842 0.355225 29.3289 0.355225 28.9342V19.6579C0.355225 19.2237 0.710488 18.8684 1.1447 18.8684H4.97365C5.40786 18.8684 5.76312 19.2237 5.76312 19.6579V24.2763H10.421C10.8552 24.2763 11.2105 24.6316 11.2105 25.0658V28.8947C11.2105 29.3289 10.8552 29.6842 10.421 29.6842ZM4.18417 20.4474H1.93417V28.1447H9.63154V25.8947H4.97365C4.53944 25.8947 4.18417 25.5395 4.18417 25.1053V20.4474Z" fill="#0A0C0A"/>
<path d="M4.97368 13.8553C5.40789 13.8553 5.76315 13.5 5.76315 13.0658V5.72372H13.1447C13.5789 5.72372 13.9342 5.36846 13.9342 4.93425C13.9342 4.50004 13.5789 4.14478 13.1447 4.14478H4.97368C4.53947 4.14478 4.1842 4.50004 4.1842 4.93425V13.0264C4.1842 13.5 4.53947 13.8553 4.97368 13.8553Z" fill="#0A0C0A"/>
<path d="M16.8947 25.8554H25.0658C25.5 25.8554 25.8552 25.5001 25.8552 25.0659V16.9738C25.8552 16.5396 25.5 16.1843 25.0658 16.1843C24.6315 16.1843 24.2763 16.5396 24.2763 16.9738V24.2764H16.8947C16.4605 24.2764 16.1052 24.6317 16.1052 25.0659C16.1052 25.5001 16.4605 25.8554 16.8947 25.8554Z" fill="#0A0C0A"/>
</svg>
