<svg width="210" height="30" viewBox="0 0 210 30" fill="none" xmlns="http://www.w3.org/2000/svg">
<path fill-rule="evenodd" clip-rule="evenodd" d="M156.716 29.86C154.859 29.86 153.234 29.625 151.956 29.036C150.68 28.448 149.519 27.625 148.706 26.683C147.898 25.6333 147.307 24.4338 146.966 23.154C146.586 21.7339 146.391 20.2709 146.385 18.801C146.385 17.271 146.617 15.742 146.965 14.331C147.43 12.919 148.01 11.742 148.939 10.801C149.751 9.742 150.912 9.036 152.189 8.448C153.466 7.86 154.975 7.625 156.716 7.625C158.458 7.625 160.083 7.86 161.36 8.448C162.637 9.036 163.798 9.86 164.61 10.801C165.423 11.742 166.12 13.036 166.468 14.331C166.932 15.625 167.048 17.154 167.048 18.683C167.048 20.213 166.816 21.743 166.468 23.036C166.119 24.448 165.423 25.625 164.61 26.683C163.798 27.743 162.637 28.448 161.36 29.036C160.083 29.625 158.458 29.86 156.716 29.86ZM156.716 11.272C154.743 11.272 153.35 11.86 152.306 13.154C151.26 14.448 150.796 16.213 150.796 18.684C150.796 21.154 151.376 23.036 152.306 24.213C153.35 25.507 154.743 26.095 156.716 26.095C158.574 26.095 160.083 25.507 161.012 24.213C162.056 22.919 162.521 21.154 162.521 18.683C162.521 16.213 162.056 14.331 161.011 13.154C159.967 11.86 158.574 11.272 156.716 11.272ZM179.353 29.86C177.496 29.86 175.871 29.625 174.593 29.036C173.317 28.448 172.156 27.625 171.343 26.683C170.535 25.6334 169.943 24.4339 169.602 23.154C169.223 21.7339 169.028 20.2709 169.022 18.801C169.022 17.271 169.254 15.742 169.602 14.331C170.066 12.919 170.647 11.742 171.575 10.801C172.505 9.742 173.549 9.036 174.825 8.448C176.103 7.86 177.612 7.625 179.353 7.625C181.095 7.625 182.72 7.86 183.997 8.448C185.274 9.036 186.434 9.86 187.247 10.801C188.06 11.742 188.757 13.036 189.104 14.331C189.453 15.625 189.684 17.154 189.684 18.683C189.684 20.213 189.453 21.743 189.104 23.036C188.756 24.448 188.06 25.625 187.247 26.683C186.434 27.743 185.274 28.448 183.997 29.036C182.72 29.625 181.211 29.86 179.353 29.86ZM179.353 11.272C177.38 11.272 175.987 11.86 174.942 13.154C173.897 14.448 173.432 16.213 173.432 18.684C173.432 21.154 174.013 23.036 174.942 24.213C175.987 25.507 177.38 26.095 179.353 26.095C181.211 26.095 182.72 25.507 183.648 24.213C184.693 22.919 185.158 21.154 185.158 18.683C185.158 16.213 184.693 14.331 183.648 13.154C182.72 11.86 181.327 11.272 179.353 11.272ZM207.563 29.882C207.098 29.882 206.633 29.647 206.285 29.294L199.204 21.882C198.74 21.412 198.391 21.176 198.159 20.942C197.811 20.824 197.463 20.706 196.766 20.706H196.418V28.118C196.418 29.058 195.605 29.882 194.677 29.882H193.747C192.819 29.882 192.007 29.059 192.007 28.118V1.765C192.007 0.824 192.819 0 193.747 0H194.677C195.605 0 196.417 0.824 196.417 1.765V16.824C196.998 16.824 197.347 16.824 197.695 16.706C197.927 16.588 198.275 16.353 198.624 16.118L204.428 9.412C204.792 9.03273 205.296 8.82004 205.821 8.824C206.169 8.824 206.633 8.941 206.866 9.176L207.446 9.647C207.794 9.882 208.026 10.353 208.143 10.824C208.143 11.294 208.027 11.764 207.678 12L201.874 18.588L209.536 26.588C209.884 26.941 210 27.412 210 27.765C210 28.235 209.768 28.705 209.42 28.941L208.84 29.529C208.375 29.765 207.91 29.882 207.562 29.882H207.563ZM143.715 18.118C143.367 17.294 142.902 16.471 142.322 15.882C141.742 15.294 141.161 14.706 140.464 14.352C140 14.118 139.652 13.882 139.304 13.765C139.536 13.529 139.884 13.412 140.116 13.176C140.58 12.706 141.045 12.236 141.393 11.765C141.741 11.176 142.09 10.588 142.322 10C142.554 9.294 142.67 8.706 142.67 8C142.67 6.588 142.438 5.294 141.857 4.235C141.277 3.176 140.58 2.353 139.536 1.765C138.538 1.14482 137.437 0.706695 136.286 0.471C135.124 0.235 133.731 0.118 132.454 0.118H123.4C122.471 0.118 121.658 0.941 121.658 1.882V28.235C121.658 29.176 122.471 30 123.4 30H134.428C135.937 30 137.214 29.765 138.491 29.412C139.651 29.059 140.813 28.471 141.625 27.765C142.554 27.059 143.135 26.118 143.715 25.059C144.179 24 144.411 22.706 144.411 21.412C144.295 20.118 144.063 19.059 143.715 18.118ZM130.945 12.353H130.713C129.784 12.471 129.088 13.294 129.088 14.235V14.471C129.088 15.411 129.784 16.235 130.713 16.353H134.66C135.24 16.353 135.705 16.471 136.285 16.706C136.75 16.824 137.098 17.059 137.562 17.294C137.91 17.529 138.259 17.882 138.607 18.235C138.955 18.588 139.187 19.059 139.303 19.529C139.536 20 139.536 20.589 139.536 21.294C139.536 23.059 139.071 24.235 138.026 24.941C136.982 25.647 135.589 26 133.964 26H126.302V3.882H131.526C133.616 3.882 135.24 4.235 136.401 4.824C137.562 5.412 138.027 6.471 138.027 7.882C138.027 8.706 137.91 9.412 137.562 9.882C137.34 10.4364 136.929 10.8946 136.402 11.176C135.937 11.529 135.357 11.765 134.66 12C133.964 12.118 133.267 12.235 132.454 12.235H131.99L130.945 12.353ZM31.46 29.86C29.603 29.86 27.978 29.625 26.7 29.036C25.424 28.448 24.263 27.625 23.45 26.683C22.6424 25.6333 22.051 24.4338 21.71 23.154C21.3304 21.7339 21.1352 20.2709 21.129 18.801C21.129 17.271 21.361 15.742 21.709 14.331C22.173 12.919 22.754 11.742 23.683 10.801C24.495 9.742 25.656 9.036 26.933 8.448C28.21 7.86 29.719 7.625 31.46 7.625C33.202 7.625 34.827 7.86 36.104 8.448C37.381 9.036 38.542 9.86 39.354 10.801C40.167 11.742 40.864 13.036 41.212 14.331C41.56 15.625 41.792 17.154 41.792 18.683C41.792 20.213 41.56 21.743 41.212 23.036C40.863 24.448 40.167 25.625 39.354 26.683C38.542 27.743 37.381 28.448 36.104 29.036C34.827 29.625 33.202 29.86 31.46 29.86ZM31.46 11.272C29.487 11.272 28.094 11.86 27.05 13.154C26.004 14.448 25.54 16.213 25.54 18.684C25.54 21.154 26.12 23.036 27.05 24.213C28.094 25.507 29.487 26.095 31.46 26.095C33.318 26.095 34.827 25.507 35.756 24.213C36.8 22.919 37.265 21.154 37.265 18.683C37.265 16.213 36.8 14.331 35.755 13.154C34.711 11.86 33.318 11.272 31.46 11.272ZM80.68 29.882C80.217 29.882 79.752 29.647 79.404 29.294L72.323 21.882C71.974 21.412 71.51 21.176 71.278 20.942C71.046 20.824 70.581 20.706 69.885 20.706H69.537V28.118C69.537 29.058 68.724 29.882 67.795 29.882H66.867C65.938 29.882 65.125 29.059 65.125 28.118V1.765C65.125 0.824 65.938 0 66.867 0H67.795C68.725 0 69.537 0.824 69.537 1.765V16.824C70.117 16.824 70.465 16.824 70.814 16.706C71.046 16.588 71.394 16.353 71.742 16.118L77.547 9.412C77.9107 9.03273 78.4146 8.82004 78.94 8.824C79.288 8.824 79.752 8.941 79.984 9.176L80.564 9.647C80.914 9.882 81.145 10.353 81.261 10.824C81.261 11.294 81.145 11.764 80.797 12L74.993 18.588L82.654 26.588C83.003 26.941 83.119 27.412 83.119 27.765C83.119 28.235 82.887 28.705 82.539 28.941L81.842 29.411C81.494 29.765 81.029 29.882 80.681 29.882H80.68ZM20.316 5.294C19.736 4.118 19.039 3.059 18.11 2.235C17.182 1.412 16.137 0.824 14.86 0.588C13.7 0.235 12.306 0.118 11.03 0.118H1.74C0.813 9.31323e-10 0 0.824 0 1.765V28.118C0 29.058 0.813 29.882 1.741 29.882H2.902C3.831 29.882 4.643 29.059 4.643 28.118V3.882H10.1C10.912 3.882 11.725 4 12.537 4.118C13.234 4.235 13.93 4.471 14.511 4.941C15.091 5.294 15.556 5.882 15.904 6.706C16.252 7.412 16.484 8.471 16.484 9.765C16.484 10.824 16.252 11.765 15.904 12.471C15.556 13.176 15.091 13.765 14.511 14.118C13.931 14.588 13.234 14.824 12.537 15.058C11.725 15.294 11.028 15.294 10.216 15.294H8.939C8.01 15.412 7.313 16.118 7.313 17.059V17.294C7.313 18.235 8.01 19.059 8.939 19.059H10.796C12.306 19.059 13.698 18.824 14.859 18.353C16.136 17.883 17.181 17.294 18.109 16.471C19.039 15.647 19.735 14.706 20.315 13.529C20.895 12.353 21.128 11.059 21.128 9.647C21.128 7.882 20.779 6.471 20.315 5.294H20.316ZM118.409 27.154V26.919C118.177 26.095 117.48 25.625 116.784 25.625H116.435L115.855 25.742H115.507C115.042 25.86 114.462 25.86 113.882 25.86C112.837 25.86 112.024 25.625 111.444 25.036C110.979 24.448 110.631 23.389 110.631 21.978V11.86H115.739C116.668 11.86 117.48 11.036 117.48 10.095V9.86C117.48 8.919 116.668 8.095 115.739 8.095H110.631V3.86C110.631 2.919 109.819 2.095 108.89 2.095H107.961C107.033 2.095 106.22 2.919 106.22 3.86V22.8C106.22 24.094 106.336 25.153 106.684 25.977C107.033 26.8 107.497 27.506 108.077 28.094C108.657 28.682 109.47 29.035 110.283 29.271C111.096 29.506 112.024 29.624 112.953 29.624H114.46C114.46 29.624 114.924 29.624 115.737 29.506C116.55 29.388 116.897 29.271 117.014 29.271C117.478 29.153 117.827 28.918 118.059 28.447C118.523 28.094 118.523 27.624 118.407 27.153L118.409 27.154ZM61.991 26.213C61.759 25.507 61.062 25.036 60.25 25.036C60.134 25.036 59.089 25.272 59.089 25.272C58.625 25.389 58.044 25.507 57.579 25.625C56.419 25.86 55.49 25.978 54.445 25.978C52.355 25.978 50.847 25.389 49.802 24.213C48.757 23.036 48.177 21.154 48.177 18.801C48.177 17.742 48.293 16.683 48.641 15.742C48.873 14.802 49.338 13.978 49.918 13.389C50.498 12.801 51.078 12.213 51.892 11.859C52.7701 11.4728 53.7187 11.2729 54.678 11.272C55.722 11.272 56.651 11.272 57.464 11.507L58.857 11.86C58.857 11.86 60.017 12.213 60.134 12.213C60.83 12.213 61.643 11.743 61.875 11.036L61.991 10.683C62.107 10.213 62.107 9.743 61.875 9.389C61.6926 8.99792 61.3562 8.69993 60.946 8.566C60.946 8.566 60.134 8.331 58.856 7.978H58.741C57.58 7.625 56.071 7.507 54.445 7.507C52.705 7.507 51.079 7.742 49.802 8.331C48.4976 8.87823 47.314 9.6775 46.319 10.683C45.3787 11.7422 44.6672 12.9841 44.229 14.331C43.7629 15.775 43.528 17.2836 43.533 18.801C43.533 20.448 43.766 21.86 44.113 23.271C44.462 24.566 45.159 25.86 45.971 26.801C46.784 27.742 47.945 28.566 49.338 29.036C50.731 29.625 52.356 29.86 54.329 29.86C55.839 29.86 57.232 29.742 58.509 29.39C58.973 29.272 60.83 28.683 60.83 28.683C61.295 28.566 61.603 28.3 61.875 27.903C62.071 27.755 62.241 26.838 62.107 26.566L61.991 26.213ZM103.201 15.507C103.201 15.154 103.086 14.801 102.969 14.448C102.853 14.095 102.853 13.86 102.737 13.507V13.389C102.621 13.154 102.621 12.801 102.505 12.566C102.505 12.448 102.389 12.448 102.389 12.331C102.273 12.095 102.157 11.86 102.157 11.742C102.041 11.625 101.809 11.154 101.693 10.919C101.576 10.683 101.344 10.449 101.113 10.213C99.603 8.331 97.165 7.389 94.147 7.389H93.333C91.824 7.507 90.547 7.859 89.503 8.331C88.226 8.919 87.181 9.742 86.368 10.801C85.556 11.86 84.859 13.036 84.511 14.448C84.046 15.742 83.931 17.272 83.931 18.801C83.931 20.448 84.163 21.978 84.511 23.271C84.859 24.683 85.556 25.86 86.368 26.801C87.181 27.742 88.342 28.566 89.735 29.036C91.128 29.625 92.753 29.86 94.726 29.86C96.584 29.86 98.209 29.742 99.486 29.39H99.602C99.718 29.39 99.95 29.272 100.066 29.272H100.182C100.415 29.154 100.647 29.154 100.762 29.036H100.879L101.227 28.919C101.343 28.919 101.343 28.919 101.459 28.801C101.924 28.683 102.272 28.331 102.389 27.978C102.62 27.507 102.62 27.036 102.504 26.683L102.388 26.331C102.156 25.625 101.459 25.154 100.647 25.154H100.182L99.602 25.272H99.486C98.906 25.389 98.441 25.507 97.976 25.625C97.512 25.742 96.932 25.86 96.468 25.86C96.003 25.86 95.423 25.978 94.726 25.978C92.753 25.978 91.244 25.389 90.199 24.331C89.154 23.271 88.689 21.86 88.574 20.095H101.808C102.736 20.095 103.548 19.272 103.548 18.331V17.978C103.317 17.978 103.317 17.86 103.317 17.742C103.317 16.919 103.201 16.212 103.201 15.507ZM98.674 15.507C98.674 15.507 98.674 16.213 98.79 16.448H88.457C88.5442 15.099 89.0751 13.8168 89.967 12.801C90.779 11.978 91.824 11.507 93.217 11.389H93.798C94.494 11.389 95.075 11.507 95.655 11.625C96.235 11.742 96.7 12.095 97.165 12.565C97.629 13.036 97.977 13.507 98.209 14.213L98.673 15.507H98.674Z" fill="#00615B"/>
</svg>
