<svg width="33" height="33" viewBox="0 0 33 33" fill="none" xmlns="http://www.w3.org/2000/svg">
<path fill-rule="evenodd" clip-rule="evenodd" d="M0 16.5C0 7.38729 7.38729 0 16.5 0C25.6127 0 33 7.38729 33 16.5C33 25.6127 25.6127 33 16.5 33C7.38729 33 0 25.6127 0 16.5ZM1.50002 16.5C1.50002 24.7843 8.21571 31.5 16.5 31.5C24.7843 31.5 31.5 24.7843 31.5 16.5C31.5 8.21571 24.7843 1.50002 16.5 1.50002C8.21571 1.50002 1.50002 8.21571 1.50002 16.5Z" fill="white"/>
<path fill-rule="evenodd" clip-rule="evenodd" d="M12 9H20.9999C22.6568 9 24 10.3431 23.9999 12V20.9999C23.9999 22.6568 22.6568 23.9999 20.9999 23.9999H12C10.3431 23.9999 9 22.6568 9 20.9999V12C9 10.3431 10.3431 9 12 9ZM21.7499 11.25H19.4999V13.5H21.7499V11.25ZM16.5 13.5001C18.1568 13.5001 19.4999 14.8432 19.4999 16.5C19.4999 18.1569 18.1568 19.5 16.5 19.5C14.8431 19.5 13.5 18.1569 13.5 16.5C13.5 14.8432 14.8431 13.5001 16.5 13.5001ZM20.9999 22.5C21.8284 22.5 22.5 21.8284 22.5 21H22.4999V15.75H20.9249C20.9711 15.9975 20.9962 16.2483 20.9999 16.5C21.0043 16.7955 20.9795 17.0906 20.9259 17.3812C20.4754 19.8253 18.1289 21.4415 15.6848 20.9911C13.2407 20.5406 11.6245 18.1941 12.0749 15.75H10.5V21C10.5 21.8284 11.1716 22.5 12 22.5H20.9999Z" fill="white"/>
</svg>
