<svg width="33" height="33" viewBox="0 0 33 33" fill="none" xmlns="http://www.w3.org/2000/svg">
<path fill-rule="evenodd" clip-rule="evenodd" d="M16.6622 13H16.3297C15.6034 12.9965 15.0132 12.5114 15 11.9073V10.1063C15.0045 9.49417 15.6021 9 16.3378 9H16.6703C17.3966 9.00359 17.9868 9.48861 18 10.0927V11.8937C17.9955 12.5058 17.3979 13 16.6622 13ZM16.5003 9.60739C16.2227 9.60721 15.9975 9.79439 15.9973 10.0253V11.9612C15.9975 12.192 16.2223 12.379 16.4997 12.3792C16.7773 12.3793 17.0025 12.1922 17.0027 11.9612V10.0253C17.0026 9.79456 16.7777 9.60756 16.5003 9.60739Z" fill="white"/>
<path d="M12.438 13H13.6364V10.5175L15 7H13.8843L13.0578 9.33463L12.2314 7H11L12.4545 10.5175L12.438 13Z" fill="white"/>
<path d="M18.7582 13C19.234 12.9621 19.6798 12.7907 20.0217 12.5143V12.9326H21V9.00006H20.0217V12.0489C20.0217 12.0489 19.6875 12.3727 19.3696 12.3727C19.0516 12.3727 19.0353 12.1636 19.0353 12.1636V9H18V12.4604C18.0565 12.7707 18.3789 13.0002 18.7582 13Z" fill="white"/>
<path d="M18.5 19C18.3057 19.0075 18.1243 19.079 18 19.197V21.8283C18.1276 21.9395 18.3098 22.0021 18.5 21.9999C19 21.9999 19 21.5614 19 21.5614V19.4386C19 19.4385 18.9113 19 18.5 19Z" fill="white"/>
<path fill-rule="evenodd" clip-rule="evenodd" d="M0 16.5C0 7.38729 7.38729 0 16.5 0C25.6127 0 33 7.38729 33 16.5C33 25.6127 25.6127 33 16.5 33C7.38729 33 0 25.6127 0 16.5ZM1.50002 16.5C1.50002 24.7843 8.21571 31.5 16.5 31.5C24.7843 31.5 31.5 24.7843 31.5 16.5C31.5 8.21571 24.7843 1.50002 16.5 1.50002C8.21571 1.50002 1.50002 8.21571 1.50002 16.5Z" fill="white"/>
<path d="M21.5 19C21 19 21 19.4367 21 19.4367V20H22V19.4367C22.0001 19.4367 22.0001 19 21.5 19Z" fill="white"/>
<path fill-rule="evenodd" clip-rule="evenodd" d="M22.4052 14.1487C22.3918 14.1489 22.3784 14.1492 22.365 14.1496H22.3495C22.3495 14.1496 19.4363 14 16.5 14C13.5636 14 10.6349 14.1424 10.6349 14.1424C9.35536 14.1031 8.28342 15.0273 8.24079 16.2068C8.23993 16.2309 8.23946 16.2551 8.23953 16.2792C8.09197 17.1752 8.01189 18.0795 8 18.9857C8.01089 19.9014 8.09091 20.8153 8.23953 21.7208C8.2388 22.9009 9.27613 23.8581 10.5565 23.8587C10.5826 23.8587 10.6088 23.8584 10.635 23.8576C10.635 23.8576 13.5173 24 16.5 24C19.4827 24 22.3651 23.8576 22.3651 23.8576C23.6446 23.8969 24.7166 22.9727 24.7592 21.7932C24.7601 21.7691 24.7605 21.7449 24.7605 21.7208C24.9084 20.8153 24.9884 19.9014 25 18.9857C24.9902 18.07 24.9102 17.156 24.7605 16.2507C24.7398 15.0708 23.6854 14.1296 22.4052 14.1487ZM13.0304 16.5356H11.8636V22.0769H10.7122V16.5356H9.54541V15.6239H13.0536L13.0304 16.5356ZM15.1014 22.0769H16.0673L16.0982 17.2336H15.14V21.1653C15.14 21.1653 14.8155 21.5143 14.4987 21.5143C14.1818 21.5143 14.1818 21.3006 14.1818 21.3006V17.2336H13.185V21.5855C13.2358 21.9136 13.5442 22.1551 13.9037 22.1482C14.3511 22.1119 14.7727 21.9389 15.1014 21.6567V22.0769ZM18.9341 22.1482C18.5276 22.1515 18.1435 21.9772 17.8986 21.6781V22.0769H16.8554V15.6239H17.8909V17.718C18.1559 17.4412 18.5272 17.2702 18.9264 17.2408C19.5677 17.2408 19.8073 17.7322 19.8073 18.3661L19.815 21.0228C19.815 21.0228 19.815 22.1482 18.9341 22.1482ZM21.569 19.8547H23.5627H23.5628V18.4302C23.5654 18.3618 23.5614 18.2932 23.5508 18.2255C23.4522 17.5908 22.8141 17.1499 22.1255 17.2407C22.0716 17.2332 22.0174 17.2287 21.9629 17.2273C21.2206 17.2074 20.6015 17.746 20.58 18.4302V21.1795C20.7708 21.8076 21.4206 22.2209 22.1255 22.1624C22.8059 22.2189 23.4242 21.7961 23.5628 21.1795V20.4103H22.5273V20.9089C22.5273 20.9089 22.5273 21.4003 22.0482 21.4003C21.569 21.4003 21.569 20.9089 21.569 20.9089V19.8547Z" fill="white"/>
</svg>
