<svg width="35" height="28" viewBox="0 0 35 28" fill="none" xmlns="http://www.w3.org/2000/svg">
<path fill-rule="evenodd" clip-rule="evenodd" d="M17 27.7255L17.2778 27.8902L17.5556 27.7255C17.5607 27.7255 17.6072 27.7039 17.6915 27.6647C18.5084 27.2851 22.8772 25.2549 27.6111 25.2549C29.5299 25.2549 32.8157 25.6642 33.7129 25.776C33.8547 25.7937 33.9369 25.8039 33.9444 25.8039L34.6111 25.9686V0.658824L34.1667 0.54902C34.0556 0.494118 31.3333 0 27.6111 0C22.8333 0 18.5 1.92157 17.3333 2.47059C16.3333 1.86667 12.8333 0 8.27778 0C6.22222 0 3 0.164706 0.444444 0.54902L0 0.603922V25.9686L0.666667 25.8039C1.83333 25.5294 6.55556 25.2549 8.27778 25.2549C12.6957 25.2549 16.2063 27.2724 16.8827 27.6611C16.9548 27.7026 16.9946 27.7255 17 27.7255ZM17.3333 26.6275C16.3333 26.0235 12.7778 24.1569 8.27778 24.1569C6.88889 24.1569 3 24.3765 1.11111 24.651V1.53725C3.5 1.20784 6.44444 1.09804 8.27778 1.09804C12.7483 1.09804 16.2197 3.11776 16.8851 3.5049C16.9557 3.54593 16.9947 3.56863 17 3.56863L17.2778 3.73333L17.5556 3.56863C17.5608 3.56863 17.6082 3.54682 17.6941 3.5073C18.5223 3.1262 22.9299 1.09804 27.6111 1.09804C30.3889 1.09804 32.6111 1.37255 33.5 1.53725V24.651C32.2222 24.4863 29.4444 24.1569 27.6111 24.1569C22.7778 24.1569 18.5 26.0784 17.3333 26.6275Z" fill="black"/>
<path fill-rule="evenodd" clip-rule="evenodd" d="M14.7222 7.90589L15.2222 8.1255L15.6666 7.13726L15.1666 6.91765C13.6111 6.25883 11.1111 5.4902 8.27772 5.4902C6.72217 5.4902 4.88883 5.60001 3.27772 5.70981L2.72217 5.76471L2.83328 6.86275L3.38883 6.80785C4.94439 6.64315 6.77772 6.58824 8.27772 6.58824C10.9444 6.58824 13.2777 7.30197 14.7222 7.90589ZM19.3333 7.08236L19.7222 8.1255L20.2222 7.96079C21.9999 7.30197 24.7222 6.58824 27.5555 6.58824C29.0555 6.58824 31.4999 6.80785 31.4999 6.80785L32.0555 6.86275L32.1666 5.76471L31.6111 5.70981C31.4999 5.65491 29.1111 5.4902 27.5555 5.4902C24.5555 5.4902 21.6666 6.25883 19.8333 6.91765L19.3333 7.08236Z" fill="black"/>
<path fill-rule="evenodd" clip-rule="evenodd" d="M14.7222 10.651L15.2222 10.8706L15.6666 9.88235L15.1666 9.66274C13.6111 9.00392 11.1111 8.23529 8.27772 8.23529C6.72217 8.23529 4.88883 8.34509 3.27772 8.4549L2.72217 8.5098L2.83328 9.60784L3.38883 9.55294C4.94439 9.38823 6.77772 9.33333 8.27772 9.33333C10.9444 9.33333 13.2777 10.0471 14.7222 10.651ZM19.3333 9.82745L19.7222 10.8706L20.2222 10.7059C21.9999 10.0471 24.7222 9.33333 27.5555 9.33333C29.0555 9.33333 31.4999 9.55294 31.4999 9.55294L32.0555 9.60784L32.1666 8.5098L31.6111 8.4549C31.4999 8.4 29.1111 8.23529 27.5555 8.23529C24.5555 8.23529 21.6666 9.00392 19.8333 9.66274L19.3333 9.82745Z" fill="black"/>
<path fill-rule="evenodd" clip-rule="evenodd" d="M14.7222 13.3961L15.2222 13.6157L15.6666 12.6275L15.1666 12.4079C13.6111 11.749 11.1111 10.9804 8.27772 10.9804C6.72217 10.9804 4.88883 11.0902 3.27772 11.2L2.72217 11.2549L2.83328 12.353L3.38883 12.2981C4.94439 12.1333 6.77772 12.0784 8.27772 12.0784C10.9444 12.0784 13.2777 12.7922 14.7222 13.3961ZM19.3333 12.5726L19.7222 13.6157L20.2222 13.451C21.9999 12.7922 24.7222 12.0784 27.5555 12.0784C29.0555 12.0784 31.4999 12.2981 31.4999 12.2981L32.0555 12.353L32.1666 11.2549L31.6111 11.2C31.4999 11.1451 29.1111 10.9804 27.5555 10.9804C24.5555 10.9804 21.6666 11.749 19.8333 12.4079L19.3333 12.5726Z" fill="black"/>
<path fill-rule="evenodd" clip-rule="evenodd" d="M14.7222 16.6902L15.2222 16.9098L15.6666 15.9216L15.1666 15.702C13.6111 15.0431 11.1111 14.2745 8.27772 14.2745C6.72217 14.2745 4.88883 14.3843 3.27772 14.4941L2.72217 14.549L2.83328 15.6471L3.38883 15.5922C4.94439 15.4274 6.77772 15.3725 8.27772 15.3725C10.9444 15.3725 13.2777 16.0863 14.7222 16.6902ZM19.3333 15.8667L19.7222 16.9098L20.2222 16.7451C21.9999 16.0863 24.7222 15.3725 27.5555 15.3725C29.0555 15.3725 31.4999 15.5922 31.4999 15.5922L32.0555 15.6471L32.1666 14.549L31.6111 14.4941C31.4999 14.4392 29.1111 14.2745 27.5555 14.2745C24.5555 14.2745 21.6666 15.0431 19.8333 15.702L19.3333 15.8667Z" fill="black"/>
<path fill-rule="evenodd" clip-rule="evenodd" d="M14.7222 19.9843L15.2222 20.2039L15.6666 19.2157L15.1666 18.9961C13.6111 18.3373 11.1111 17.5686 8.27772 17.5686C6.72217 17.5686 4.88883 17.6784 3.27772 17.7882L2.72217 17.8431L2.83328 18.9412L3.38883 18.8863C4.94439 18.7216 6.77772 18.6667 8.27772 18.6667C10.9444 18.6667 13.2777 19.3804 14.7222 19.9843ZM19.3333 19.1608L19.7222 20.2039L20.2222 20.0392C21.9999 19.3804 24.7222 18.6667 27.5555 18.6667H28.1111V17.5686H27.5555C24.5555 17.5686 21.6666 18.3373 19.8333 18.9961L19.3333 19.1608Z" fill="black"/>
</svg>
