<svg width="20" height="18" viewBox="0 0 20 18" fill="none" xmlns="http://www.w3.org/2000/svg">
<path fill-rule="evenodd" clip-rule="evenodd" d="M18.147 7.055H14.467L13.955 11.005H16.922L18.147 7.055ZM15.225 16.477L16.45 12.527H13.758L13.245 16.477H15.225ZM3.55003 12.527L4.77503 16.477H6.88803L6.37603 12.527H3.55003ZM1.85303 7.055L3.07803 11.005H6.17803L5.66603 7.055H1.85303ZM12.874 7.055H7.26003L7.77303 11.005H12.363L12.875 7.055H12.874ZM11.651 16.477L12.164 12.527H7.97003L8.48303 16.477H11.653H11.651ZM19.966 6.511L16.656 17.185C16.506 17.669 16.044 18 15.519 18H4.48103C3.95703 18 3.49403 17.669 3.34403 17.185L0.0340284 6.51C-0.117972 6.022 0.262028 5.53 0.791028 5.53H19.21C19.739 5.53 20.119 6.022 19.967 6.51L19.966 6.511ZM12.877 4.401V4.294C12.877 2.766 11.587 1.524 10 1.524C8.41403 1.524 7.12303 2.766 7.12303 4.294V4.401H5.54203V4.294C5.54203 1.927 7.54203 0 10 0C12.459 0 14.459 1.927 14.459 4.294V4.401H12.877Z" fill="#8D9091"/>
</svg>
