<svg width="30" height="29" viewBox="0 0 30 29" fill="none" xmlns="http://www.w3.org/2000/svg">
<path fill-rule="evenodd" clip-rule="evenodd" d="M29.1003 5.15129C29.5002 5.22183 29.8048 5.54887 29.8683 5.95287C29.8937 6.08754 30.3506 9.29387 29.3986 13.321C28.8338 15.6937 27.8944 17.874 26.5997 19.7786C24.9812 22.1641 22.8106 24.1392 20.1513 25.6398C20.0053 25.7231 19.8466 25.768 19.6816 25.768C19.5229 25.768 19.3579 25.7295 19.2183 25.6462L19.2181 25.6461L19.2181 25.6461L19.2181 25.6461L19.2181 25.646L19.218 25.646C19.0594 25.5563 18.9008 25.4666 18.7423 25.3704V28.0381C18.7423 28.5704 18.317 29 17.7902 29H11.1324H7.60353H0.952028C0.425239 29 0 28.5704 0 28.0381V17.7394V13.8725C0 13.3403 0.425239 12.9106 0.952028 12.9106H9.8884C9.05803 9.08078 9.4811 6.08884 9.50116 5.94699L9.50124 5.94646C9.55836 5.54246 9.86936 5.21541 10.2692 5.14487L10.8404 5.04227C14.0012 4.45872 16.8699 2.79784 18.9644 0.335372C19.3008 -0.0686265 19.9037 -0.113515 20.3036 0.232769C20.3139 0.243229 20.325 0.253688 20.3362 0.264371L20.3362 0.264393L20.3363 0.264416L20.3363 0.264439L20.3363 0.264461C20.3595 0.286497 20.3838 0.309483 20.4051 0.335372C22.4996 2.80425 25.3684 4.46513 28.5291 5.04868L29.1003 5.15129ZM10.3961 14.8408H1.90406V16.7839H7.60353H11.126C10.8468 16.1554 10.6056 15.5077 10.3961 14.8408ZM1.90406 18.7077H6.6515V27.0826H1.90406V18.7077ZM8.55556 18.7077V27.0826H10.1804V18.7077H8.55556ZM16.8382 27.0826H12.0844V18.7077H12.0908C12.3065 19.0796 12.5287 19.4387 12.7699 19.7914C13.8742 21.4202 15.2388 22.8631 16.8382 24.0879V27.0826ZM24.9939 18.7397C26.1554 17.034 27.0059 15.0845 27.52 12.9491C27.996 10.974 28.1737 8.93476 28.0467 6.90836C24.867 6.29274 21.9474 4.71522 19.6816 2.38101C17.4094 4.70881 14.4962 6.29274 11.3164 6.90836C11.1958 8.94117 11.3736 10.974 11.8432 12.9491C12.3573 15.0845 13.2078 17.034 14.3693 18.7397C15.7212 20.7277 17.5046 22.395 19.6816 23.7031C21.8586 22.395 23.642 20.7277 24.9939 18.7397Z" fill="black"/>
<path d="M23.4785 8.10213C23.0161 7.86059 22.4537 8.06296 22.2225 8.54605L19.4732 14.343L16.6114 11.2487C16.249 10.857 15.6554 10.8505 15.2868 11.2226C14.9119 11.6012 14.9056 12.2214 15.2618 12.6066L19.0483 16.6997C19.2233 16.889 19.4732 17 19.7232 17C19.7731 17 19.8169 16.9935 19.8669 16.9869C20.1668 16.9412 20.4292 16.7389 20.5604 16.4516L23.8971 9.40776C24.1345 8.93121 23.9471 8.34367 23.4785 8.10213Z" fill="black"/>
</svg>
