<svg width="30" height="30" viewBox="0 0 30 30" fill="none" xmlns="http://www.w3.org/2000/svg">
<path fill-rule="evenodd" clip-rule="evenodd" d="M3.14234 14.2603L0.741009 13.023C0.322342 12.8117 0.108675 12.307 0.250009 11.852L1.21334 8.88933C1.35301 8.478 1.73068 8.208 2.15634 8.208C2.19201 8.208 2.25168 8.212 2.28668 8.21667L5.05434 8.641C5.30734 8.25167 5.58401 7.87533 5.88234 7.51467L4.62634 5.01833C4.41801 4.60033 4.53268 4.088 4.89834 3.79767C4.90434 3.79278 4.91034 3.78819 4.91634 3.7836C4.91934 3.7813 4.92234 3.779 4.92534 3.77667L7.43701 1.952C7.83468 1.671 8.38034 1.72367 8.70968 2.04733L10.673 3.993C11.118 3.81233 11.572 3.65867 12.032 3.53267L12.473 0.827667C12.5667 0.339 12.9743 0 13.4463 0H16.5527C17.0373 0 17.4553 0.361667 17.5253 0.840667L17.9497 3.43233C18.4513 3.55267 18.9463 3.706 19.4267 3.891L21.287 2.049C21.624 1.72133 22.1653 1.67967 22.5427 1.939L25.0717 3.776C25.4603 4.06633 25.5857 4.59833 25.372 5.01967L24.2087 7.32933C24.5487 7.74033 24.8567 8.16767 25.1327 8.61067L27.697 8.21767C27.737 8.21167 27.8017 8.207 27.8413 8.207C28.2693 8.207 28.6483 8.47767 28.7837 8.881L29.7423 11.842C29.898 12.2897 29.6897 12.8053 29.2523 13.0257L26.8787 14.2497C26.8903 14.5017 26.894 14.758 26.8897 15.015C26.8863 15.249 26.8747 15.488 26.8547 15.7373L29.259 16.9787C29.686 17.199 29.8933 17.7093 29.7413 18.166L28.786 21.11C28.652 21.5193 28.2733 21.793 27.8423 21.793C27.807 21.793 27.746 21.7887 27.7113 21.784L24.945 21.3597C24.692 21.7473 24.415 22.1233 24.1167 22.4833L25.3733 24.985C25.5883 25.4003 25.469 25.9203 25.0863 26.213L22.558 28.0487C22.1637 28.328 21.609 28.2737 21.2827 27.946L19.3223 26.0083C18.8697 26.191 18.4183 26.344 17.9677 26.468L17.5217 29.1747C17.4587 29.6357 17.0417 29.9993 16.5547 29.9993L13.4473 30H13.447C12.9767 30 12.569 29.663 12.4777 29.199L12.0463 26.5667C11.539 26.4447 11.0473 26.292 10.5733 26.1097L8.71268 27.9503C8.38534 28.2743 7.81901 28.321 7.44301 28.0527L4.92534 26.2243C4.53168 25.919 4.41434 25.4033 4.62634 24.9833L5.78968 22.672C5.45368 22.2683 5.14234 21.8377 4.86468 21.3893L2.29868 21.782C2.25868 21.7877 2.19334 21.793 2.15334 21.793C1.73201 21.793 1.34568 21.513 1.21401 21.1127L0.253342 18.161C0.108342 17.6947 0.313009 17.2033 0.735675 16.9817L3.11901 15.7493C3.10568 15.4747 3.10234 15.2227 3.10801 14.9837C3.11334 14.7307 3.12468 14.4913 3.14234 14.2603ZM5.15834 10.254L2.55901 9.85533L1.91201 11.8493L4.19668 13.0263C4.56401 13.2143 4.79201 13.637 4.74834 14.0527C4.71468 14.357 4.69468 14.6713 4.68734 15.0177C4.68101 15.309 4.69034 15.627 4.71601 15.9913C4.74834 16.3993 4.52234 16.804 4.15401 16.9917L1.91134 18.1513L2.56001 20.1447L4.98768 19.7733C5.02768 19.7663 5.08401 19.7617 5.14068 19.7617C5.49701 19.7617 5.83701 19.9507 6.02701 20.2553C6.37034 20.8523 6.76434 21.3987 7.21334 21.9047C7.49334 22.237 7.54801 22.695 7.36268 23.06L6.26334 25.2443L7.95901 26.475L9.71667 24.737C9.88568 24.5553 10.1617 24.4383 10.4517 24.4383C10.5917 24.4383 10.726 24.4653 10.851 24.519C11.4467 24.7703 12.0827 24.9677 12.7383 25.1037C13.145 25.181 13.4827 25.532 13.5467 25.9557L13.9503 28.4207L16.0463 28.4203L16.468 25.8647C16.521 25.4683 16.8493 25.1113 17.2623 25.0203C17.8437 24.879 18.445 24.675 19.0347 24.4177C19.147 24.3647 19.296 24.3317 19.4457 24.3317C19.7253 24.3317 19.9907 24.4417 20.1783 24.6337L22.04 26.474L23.7363 25.2423L22.5447 22.8707C22.3583 22.503 22.42 22.0283 22.6947 21.7183C23.1027 21.2533 23.4723 20.7523 23.79 20.232C23.9723 19.9307 24.3253 19.7343 24.687 19.7343C24.7213 19.7343 24.7817 19.7377 24.8153 19.7423L27.4393 20.145L28.0863 18.1507L25.803 16.972C25.4327 16.779 25.2057 16.3577 25.2487 15.9463C25.2863 15.603 25.3063 15.2917 25.3107 14.991C25.3163 14.6593 25.3067 14.3313 25.2817 14.0147C25.2513 13.6127 25.4787 13.2017 25.8333 13.0127L28.0857 11.8517L27.439 9.85567L25.0097 10.228C24.97 10.2337 24.9003 10.2393 24.8603 10.2393C24.494 10.2393 24.14 10.0373 23.9593 9.72467C23.6247 9.14567 23.2297 8.59733 22.7857 8.09433C22.5143 7.80433 22.445 7.32633 22.6333 6.94833L23.7363 4.75867L22.0403 3.52633L20.2847 5.26467C19.988 5.552 19.5197 5.63733 19.1503 5.483C18.5447 5.22767 17.9093 5.031 17.2627 4.89767C16.8577 4.81367 16.5333 4.484 16.4553 4.077L16.046 1.57933H13.9503L13.5333 4.135C13.4777 4.52267 13.1577 4.87467 12.758 4.97633C12.1423 5.125 11.5433 5.32833 10.97 5.582C10.6177 5.741 10.129 5.664 9.83601 5.38667L7.95801 3.525L6.26234 4.757L7.45634 7.13033C7.63901 7.50033 7.57668 7.97 7.30634 8.27733C6.89468 8.74567 6.52634 9.24667 6.21168 9.766C6.03334 10.0673 5.68101 10.267 5.31768 10.267C5.27468 10.267 5.20034 10.261 5.15834 10.254Z" fill="#0A0C0A"/>
<path fill-rule="evenodd" clip-rule="evenodd" d="M22.5716 15.1647C22.423 19.2527 18.9726 22.5794 14.8803 22.58C12.8556 22.5797 10.9646 21.79 9.55497 20.3567C8.14464 18.922 7.38597 17.0154 7.42031 14.9884C7.49397 10.8164 10.9463 7.42236 15.1163 7.42236C19.2223 7.42236 22.5693 10.7597 22.5773 14.8624C22.5773 14.9484 22.5746 15.082 22.5716 15.1647ZM20.9983 14.8637C20.992 11.632 18.3536 9.00136 15.1163 9.00136C11.8013 9.00136 9.05731 11.6994 8.99897 15.0154C8.97231 16.615 9.56964 18.119 10.681 19.2497C11.7913 20.379 13.2826 21.001 14.8803 21.0014C18.133 21.0007 20.8756 18.3564 20.994 15.1067C20.9966 15.0394 20.9983 14.9317 20.9983 14.8637Z" fill="#0A0C0A"/>
</svg>
