<svg width="27" height="16" viewBox="0 0 27 16" fill="none" xmlns="http://www.w3.org/2000/svg">
<path fill-rule="evenodd" clip-rule="evenodd" d="M6.35861 4.85809C6.35861 4.34035 6.02593 4.11881 5.5676 4.11881H1.58203C1.14512 4.11881 0.791016 3.76423 0.791016 3.32673C0.791016 2.88923 1.14512 2.53465 1.58203 2.53465H2.53125V0.792079C2.53125 0.354579 2.88535 0 3.32227 0H17.666V4.75248C17.666 5.18998 18.0201 5.54455 18.457 5.54455H24.5497C24.5498 5.54468 24.5531 5.545 24.5593 5.54562L24.5593 5.54562C24.7261 5.56209 27 5.78654 27 8.0264V12.7789C27 13.2164 26.6459 13.571 26.209 13.571H24.8299C24.5464 14.9691 23.3127 16 21.8584 16C20.4041 16 19.1704 14.9691 18.8869 13.571H10.8552C10.5718 14.9691 9.3381 16 7.88379 16C6.42947 16 5.19578 14.9691 4.91233 13.571H3.32227C2.88535 13.571 2.53125 13.2164 2.53125 12.7789V10.4026H0.791016C0.354103 10.4026 0 10.0481 0 9.61056C0 9.17306 0.354103 8.81848 0.791016 8.81848H7.91325C8.35016 8.81848 8.70426 8.4639 8.70426 8.0264C8.70426 7.5887 8.35119 7.23432 7.91016 7.23432H0.791016C0.354103 7.23432 0 6.87974 0 6.44224C0 6.00495 0.354103 5.65017 0.791016 5.65017H5.56986C6.00574 5.64893 6.35861 5.29476 6.35861 4.85809ZM23.6071 3.9604C22.4844 2.07384 21.589 0.703177 19.248 0.159241V3.9604H23.6071ZM22.8838 11.9369C23.4501 12.5039 23.4501 13.4237 22.8838 13.9907C21.9729 14.9028 20.4082 14.2539 20.4082 12.9637C20.4082 11.6737 21.9729 11.0248 22.8838 11.9369ZM8.90923 13.9907C9.4755 13.4237 9.4755 12.5039 8.90923 11.9369C7.99832 11.0248 6.43359 11.6737 6.43359 12.9637C6.43359 14.2539 7.99832 14.9028 8.90923 13.9907Z" fill="black"/>
</svg>
