<svg width="27" height="27" viewBox="0 0 27 27" fill="none" xmlns="http://www.w3.org/2000/svg">
<path fill-rule="evenodd" clip-rule="evenodd" d="M0 13.5C0 6.0561 6.0561 0 13.5 0C20.9439 0 27 6.0561 27 13.5C27 20.9439 20.9439 27 13.5 27C6.0561 27 0 20.9439 0 13.5ZM2.45455 13.5C2.45455 19.5905 7.40945 24.5455 13.5 24.5455C19.5905 24.5455 24.5455 19.5905 24.5455 13.5C24.5455 7.40954 19.5905 2.45455 13.5 2.45455C7.40945 2.45455 2.45455 7.40954 2.45455 13.5Z" fill="black"/>
<path d="M18.951 9.35015L12.161 16.1136L9.04902 13.0137C8.58035 12.5468 7.82032 12.5467 7.35157 13.0136C6.88281 13.4805 6.88281 14.2375 7.35157 14.7044L11.3122 18.6498C11.5373 18.874 11.8426 19 12.1609 19C12.161 19 12.1609 19 12.161 19C12.4793 19 12.7846 18.874 13.0097 18.6498L20.6484 11.0411C21.1172 10.5741 21.1172 9.81716 20.6484 9.35023C20.1797 8.88331 19.4197 8.88323 18.951 9.35015Z" fill="black"/>
</svg>
