<svg width="27" height="27" viewBox="0 0 27 27" fill="none" xmlns="http://www.w3.org/2000/svg">
<path d="M2.07829 10.8917L4.42824 9.86237C4.82651 9.6883 5.01348 9.21195 4.84574 8.79865C4.678 8.38535 4.21898 8.19133 3.82071 8.36539L3.23751 8.62076C5.02534 4.38733 9.06697 1.63071 13.5535 1.63071C18.692 1.63071 23.1714 5.23028 24.4586 10.3909C24.567 10.8255 24.9944 11.0864 25.4131 10.9738C25.8318 10.8611 26.0832 10.4179 25.9748 9.98337C24.5087 4.10628 19.3991 0 13.5535 0C8.42016 0 3.79186 3.17842 1.77187 8.04783L1.5039 7.38913C1.33616 6.97583 0.877341 6.78202 0.478865 6.95609C0.0805929 7.13016 -0.106167 7.60651 0.0615691 8.01981L1.05326 10.4584C1.221 10.8717 1.68002 11.0658 2.07829 10.8917Z" fill="black"/>
<path d="M26.9384 18.9802L25.9467 16.5416C25.7788 16.1283 25.32 15.9342 24.9217 16.1085L22.5716 17.1376C22.1733 17.3119 21.9865 17.788 22.1543 18.2013C22.322 18.6147 22.781 18.8087 23.1793 18.6346L23.7625 18.379C21.9747 22.6127 17.933 25.3693 13.4465 25.3693C8.30803 25.3693 3.82845 21.7697 2.54137 16.6091C2.43276 16.1745 2.00544 15.9136 1.58691 16.0262C1.16819 16.1387 0.916786 16.5823 1.0252 17.0166C2.49105 22.8937 7.60088 27 13.4465 27C18.5796 27 23.2081 23.8216 25.2281 18.9522L25.4959 19.6109C25.6636 20.0242 26.1227 20.218 26.5209 20.0439C26.9194 19.8698 27.1062 19.3935 26.9384 18.9802Z" fill="black"/>
<path d="M14.3515 9.62609L15 10V7H13V10L13.6438 9.62892C13.8584 9.50397 14.1198 9.49336 14.3515 9.62609Z" fill="black"/>
<path d="M10.4903 10.825L10.4871 7H7.76908C7.34428 7 7 7.34725 7 7.77591V18.2243C7 18.6528 7.34428 19 7.76908 19H18.2309C18.6557 19 19 18.6528 19 18.2243V7.77591C19 7.34725 18.6557 7 18.2309 7H15.5129V10.825C15.5129 11.4399 14.84 11.8015 14.3359 11.4829L13 10.8058L11.5988 11.5161C11.0839 11.7764 10.4899 11.3872 10.4903 10.825Z" fill="black"/>
</svg>
