<svg width="33" height="33" viewBox="0 0 33 33" fill="none" xmlns="http://www.w3.org/2000/svg">
<path d="M14.5556 12.8889V14.3334H13V16.5H14.5556V23H17.6667V16.5H19.7356L20 14.3334H17.6667V13.0695C17.6667 12.4845 17.7289 12.1739 18.7011 12.1739H20V10H17.9156C15.4267 10.0001 14.5556 11.0834 14.5556 12.8889Z" fill="white"/>
<path fill-rule="evenodd" clip-rule="evenodd" d="M0 16.5C0 7.38729 7.38729 0 16.5 0C25.6127 0 33 7.38729 33 16.5C33 25.6127 25.6127 33 16.5 33C7.38729 33 0 25.6127 0 16.5ZM1.50002 16.5C1.50002 24.7843 8.21571 31.5 16.5 31.5C24.7843 31.5 31.5 24.7843 31.5 16.5C31.5 8.21571 24.7843 1.50002 16.5 1.50002C8.21571 1.50002 1.50002 8.21571 1.50002 16.5Z" fill="white"/>
</svg>
